Coordinates
version=1
nRows=26
nColumns=22
inDegrees=yes

Units are S.I. units (second, meters, Newtons, ...)
If the header above contains a line with 'inDegrees', this indicates whether rotational values are in degrees (yes) or radians (no).

endheader
time	pelvis_tilt	pelvis_list	pelvis_rotation	pelvis_tx	pelvis_ty	pelvis_tz	hip_flexion_r	hip_adduction_r	hip_rotation_r	knee_angle_r	ankle_angle_r	subtalar_angle_r	hip_flexion_l	hip_adduction_l	hip_rotation_l	knee_angle_l	ankle_angle_l	subtalar_angle_l	lumbar_extension	lumbar_bending	lumbar_rotation
      3.67000000	      2.52933337	      2.37738647	    -31.10181204	     -0.38858281	      0.89346595	     -0.09937368	    -11.07059493	     -3.88209107	      1.72898859	    -24.44688429	     16.95493025	      0.27277986	     18.62609611	      1.31968873	    -12.10024959	    -24.69431915	      8.31380883	     -5.17092576	     -6.72522053	     -5.27607575	      7.82278207
      3.68000000	      2.52490547	      2.42348815	    -31.22562743	     -0.38236027	      0.89414298	     -0.09838219	    -10.68896627	     -4.07694583	      2.16281168	    -25.59832830	     16.03571510	      0.71088089	     18.14038583	      1.54195765	    -12.22731103	    -24.50392977	      8.51113131	     -5.56811598	     -6.61443944	     -5.29293586	      7.90787082
      3.69000000	      2.50691066	      2.44483157	    -31.37205712	     -0.37625187	      0.89478697	     -0.09732620	    -10.22473335	     -4.22774274	      2.64617382	    -26.87145324	     15.10528575	      1.02616445	     17.66744605	      1.71982397	    -12.37400978	    -24.33131472	      8.67991207	     -5.88543117	     -6.50403789	     -5.28778122	      8.03311003
      3.70000000	      2.46881900	      2.45856481	    -31.48355109	     -0.37020093	      0.89536695	     -0.09630602	     -9.68613764	     -4.33920811	      3.11963873	    -28.24196980	     14.12040119	      1.49654250	     17.23385159	      1.89067607	    -12.46013687	    -24.18818443	      8.90302543	     -6.30942226	     -6.38510589	     -5.26157921	      8.08866257
      3.71000000	      2.43427411	      2.45005316	    -31.64240534	     -0.36431104	      0.89592475	     -0.09517150	     -9.07077759	     -4.41640629	      3.65386185	    -29.74184449	     13.15078100	      1.71313293	     16.79705490	      2.01131146	    -12.62752384	    -24.06613908	      9.08398266	     -6.52540569	     -6.28221312	     -5.23102794	      8.19308031
      3.72000000	      2.35111461	      2.42780214	    -31.76605594	     -0.35852710	      0.89636823	     -0.09411363	     -8.32950832	     -4.44294828	      4.10850901	    -31.37857932	     12.16845417	      2.19353161	     16.42676244	      2.10852764	    -12.69512365	    -23.97653059	      9.35322675	     -6.88842115	     -6.15245654	     -5.15383715	      8.27297753
      3.73000000	      2.30907349	      2.39554196	    -31.95148245	     -0.35290999	      0.89682783	     -0.09293175	     -7.54490767	     -4.47077225	      4.61185761	    -33.12605312	     11.21786807	      2.39009059	     16.01270888	      2.18337998	    -12.87860807	    -23.89113931	      9.58931850	     -7.03394177	     -6.07148607	     -5.10566545	      8.38518633
      3.74000000	      2.23708319	      2.36049027	    -32.13277591	     -0.34743140	      0.89719505	     -0.09178638	     -6.64339490	     -4.47405675	      5.04545412	    -34.99301785	     10.28418892	      2.68482366	     15.64278094	      2.23946528	    -13.03180190	    -23.82397390	      9.87137407	     -7.19638984	     -5.97419134	     -5.03481088	      8.49000100
      3.75000000	      2.16290450	      2.31929210	    -32.28914135	     -0.34205822	      0.89752122	     -0.09071862	     -5.67397193	     -4.47050021	      5.37643709	    -36.93862666	      9.34381907	      3.12344896	     15.28650028	      2.29666142	    -13.13475125	    -23.76864021	     10.18567793	     -7.36843507	     -5.89467060	     -4.94913185	      8.54793192
      3.76000000	      2.16238377	      2.28397551	    -32.51630638	     -0.33683521	      0.89790392	     -0.08955906	     -4.69352618	     -4.52043269	      5.70584666	    -38.94447108	      8.49639177	      3.29833186	     14.83954024	      2.37478108	    -13.35933386	    -23.66834717	     10.46331536	     -7.41185480	     -5.88651076	     -4.92267751	      8.65257721
      3.77000000	      2.15939671	      2.25862099	    -32.73169562	     -0.33171790	      0.89824361	     -0.08846686	     -3.64829986	     -4.58838823	      5.93773713	    -40.97961378	      7.70442371	      3.51853582	     14.40362552	      2.46558978	    -13.56816782	    -23.55795495	     10.74641154	     -7.44695580	     -5.88145391	     -4.89652993	      8.72164245
      3.78000000	      2.19775136	      2.23519787	    -32.93879634	     -0.32666871	      0.89861461	     -0.08742469	     -2.60707214	     -4.70548969	      6.05910663	    -42.98996161	      6.99752604	      3.68025561	     13.91494166	      2.58981757	    -13.77520610	    -23.40639854	     11.01860879	     -7.46013493	     -5.92379408	     -4.89155429	      8.76087937
      3.79000000	      2.27092414	      2.21859978	    -33.13259168	     -0.32167090	      0.89900642	     -0.08644441	     -1.57481788	     -4.88161237	      6.06761436	    -44.93916168	      6.41718418	      3.74125700	     13.38517670	      2.74745168	    -13.99221873	    -23.21898253	     11.27161786	     -7.46073463	     -6.00303277	     -4.90608572	      8.77054597
      3.80000000	      2.38070824	      2.21304581	    -33.31620682	     -0.31670517	      0.89943110	     -0.08550746	     -0.56821394	     -5.12674913	      5.97832789	    -46.78453488	      6.01835522	      3.62357804	     12.80264708	      2.94777370	    -14.20902010	    -22.97337950	     11.49813888	     -7.45169965	     -6.11246489	     -4.94699651	      8.74684815
      3.81000000	      2.51870025	      2.22373154	    -33.48036954	     -0.31175343	      0.89987666	     -0.08463552	      0.41111424	     -5.44483564	      5.79457596	    -48.49359325	      5.84120028	      3.28427550	     12.17741259	      3.19721674	    -14.40714468	    -22.66514704	     11.69599557	     -7.44042250	     -6.23985689	     -5.01105232	      8.69732781
      3.82000000	      2.67310470	      2.21839847	    -33.60233093	     -0.30679424	      0.90036685	     -0.08382101	      1.32917132	     -5.80369247	      5.48886459	    -50.01527552	      5.91172838	      2.26966299	     11.51956054	      3.45039671	    -14.60287739	    -22.33475294	     11.86731284	     -7.46164823	     -6.39210461	     -5.05949796	      8.59531123
      3.83000000	      2.84537614	      2.20940549	    -33.68380363	     -0.30181251	      0.90090182	     -0.08307144	      2.18535217	     -6.21261128	      5.09344481	    -51.33655487	      6.22048288	      1.15565203	     10.81755597	      3.73214063	    -14.74250565	    -21.94685006	     12.02927537	     -7.46042309	     -6.56307264	     -5.10512469	      8.45435280
      3.84000000	      3.01316921	      2.19037514	    -33.72039162	     -0.29683482	      0.90146453	     -0.08237176	      2.99207201	     -6.64193237	      4.61923811	    -52.44505442	      6.73668795	     -0.18594137	     10.10586737	      4.01191390	    -14.84653151	    -21.53714700	     12.16086336	     -7.46328883	     -6.73361358	     -5.13080279	      8.27799744
      3.85000000	      3.15751740	      2.15103061	    -33.71005479	     -0.29186379	      0.90204921	     -0.08169654	      3.74982177	     -7.05291274	      4.09443638	    -53.32486698	      7.41690808	     -1.67596796	      9.39453710	      4.26538316	    -14.90938273	    -21.10538040	     12.28396794	     -7.46094397	     -6.89008815	     -5.11661464	      8.05419613
      3.86000000	      3.27878332	      2.09003548	    -33.65795843	     -0.28693793	      0.90264569	     -0.08105055	      4.46549301	     -7.43589234	      3.53170516	    -53.98839720	      8.19217551	     -3.20991234	      8.69721247	      4.48550380	    -14.93330852	    -20.67862269	     12.38893946	     -7.44998640	     -7.03983035	     -5.06423149	      7.81031242
      3.87000000	      3.37780879	      2.01424912	    -33.56129737	     -0.28205918	      0.90324601	     -0.08042035	      5.14233288	     -7.78619607	      2.94149012	    -54.44304516	      8.99952655	     -4.65400080	      8.02134241	      4.67201506	    -14.94072966	    -20.26473215	     12.45807994	     -7.42962151	     -7.17890462	     -4.98288130	      7.51843231
      3.88000000	      3.43927012	      1.95275180	    -33.42415531	     -0.27722277	      0.90380243	     -0.07982185	      5.82158313	     -8.11577511	      2.33742686	    -54.71139756	      9.77253750	     -5.84864187	      7.37264405	      4.86546117	    -14.82123171	    -19.80710194	     12.52250864	     -7.38795488	     -7.27152313	     -4.89148403	      7.22909354
      3.89000000	      3.46337699	      1.83655470	    -33.27603316	     -0.27250790	      0.90433202	     -0.07915182	      6.45874095	     -8.32835378	      1.77531311	    -54.78925124	     10.57295208	     -7.10557829	      6.76835807	      4.95200776	    -14.76659370	    -19.43409454	     12.67641110	     -7.33793756	     -7.36496559	     -4.73416744	      6.93788147
      3.90000000	      3.43579055	      1.69234021	    -33.14424924	     -0.26795903	      0.90480402	     -0.07840644	      7.10530016	     -8.42340678	      1.31023818	    -54.70466210	     11.35557953	     -8.27920124	      6.22591028	      4.95520770	    -14.76691463	    -19.11053292	     12.78846925	     -7.29138259	     -7.43177260	     -4.52759143	      6.70336932
      3.91000000	      3.41465558	      1.60455385	    -32.95172345	     -0.26342517	      0.90517612	     -0.07774470	      7.76399020	     -8.58368378	      0.77625969	    -54.51561694	     11.99207195	     -8.94925815	      5.72285896	      5.02253276	    -14.66500211	    -18.79266218	     12.92611671	     -7.23248183	     -7.47707729	     -4.37749480	      6.38919898
      3.92000000	      3.36047904	      1.47327313	    -32.80846012	     -0.25907944	      0.90550444	     -0.07694989	      8.41892671	     -8.60883279	      0.38147066	    -54.19293839	     12.66128107	     -9.84152144	      5.25009030	      5.00291446	    -14.63411742	    -18.51676484	     13.05332758	     -7.17828361	     -7.52308647	     -4.17999673	      6.17242181
